{"accessors" : [{"bufferView" : 0, "byteOffset" : 0, "componentType" : 5123, "count" : 29112, "type" : "SCALAR", "max" : [28891], "min" : [0]}, {"bufferView" : 1, "byteOffset" : 0, "componentType" : 5126, "count" : 28892, "type" : "VEC3", "max" : [215, 1439.7913818359375, 322.5403747558594], "min" : [-215, 0.21839085221290588, 267.0859680175781], "name" : "POSITION"}, {"bufferView" : 1, "byteOffset" : 12, "componentType" : 5126, "count" : 28892, "type" : "VEC3", "max" : [1.000002384185791, 0.9951707124710083, 1.0000044107437134], "min" : [-1.000002384185791, -0.9951707124710083, -1.0000044107437134], "name" : "NORMAL"}], "asset" : {"generator" : "Aspose.3D 24.9.1", "version" : "2.0"}, "buffers" : [{"uri" : "data:application/octet-stream;base64,", "byteLength" : 751640}], "bufferViews" : [{"buffer" : 0, "byteOffset" : 0, "byteLength" : 58224, "target" : 34963}, {"buffer" : 0, "byteOffset" : 58228, "byteLength" : 693408, "byteStride" : 24, "target" : 34962}], "meshes" : [{"primitives" : [{"attributes" : {"POSITION" : 1, "NORMAL" : 2}, "indices" : 0, "mode" : 4}], "name" : ""}], "nodes" : [{"mesh" : 0, "name" : ""}], "scene" : 0, "scenes" : [{"nodes" : [0]}]}